<?xml version="1.0" encoding="UTF-8"?>
<svg version="1.1" xmlns="http://www.w3.org/2000/svg" width="548" height="352">
<path d="M0 0 C180.84 0 361.68 0 548 0 C548 116.16 548 232.32 548 352 C367.16 352 186.32 352 0 352 C0 235.84 0 119.68 0 0 Z " fill="#FEFEFE" transform="translate(0,0)"/>
<path d="M0 0 C3.3 0 6.6 0 10 0 C10 17.49 10 34.98 10 53 C7.36 53 4.72 53 2 53 C1.67 51.02 1.34 49.04 1 47 C0.34 47 -0.32 47 -1 47 C-1.20625 47.598125 -1.4125 48.19625 -1.625 48.8125 C-3.63843195 52.01568719 -5.43830904 52.72796751 -9 54 C-13.46860025 54.52908227 -17.50307172 54.46571102 -21.8125 53.125 C-26.76681275 48.31223904 -29.29452986 42.38814176 -29.5 35.5 C-29.1236124 28.50711462 -27.90752812 22.50990542 -23.625 16.875 C-19.6314338 14.06545594 -14.92744645 14.39199341 -10.21875 14.3359375 C-7 15 -7 15 -1 20 C-0.67 13.4 -0.34 6.8 0 0 Z " fill="#0C0C0C" transform="translate(332,156)"/>
<path d="M0 0 C5.61 0 11.22 0 17 0 C18.62028605 4.54817136 20.23856823 9.09696981 21.85229492 13.64746094 C22.39906486 15.18755891 22.94687627 16.72728762 23.49584961 18.26660156 C26.42132937 26.47188853 29.27943612 34.68978384 31.89453125 43 C32.10865158 43.67675781 32.32277191 44.35351562 32.54338074 45.05078125 C34 49.75027397 34 49.75027397 34 52 C30.7 52 27.4 52 24 52 C22.35 47.38 20.7 42.76 19 38 C12.4 38 5.8 38 -1 38 C-2.65 42.62 -4.3 47.24 -6 52 C-8.97 52 -11.94 52 -15 52 C-14.40135348 47.20471922 -13.47150647 42.70220641 -12.125 38.0625 C-11.79757813 36.91910156 -11.47015625 35.77570313 -11.1328125 34.59765625 C-10.13908064 31.44170094 -9.00555628 28.3761728 -7.82519531 25.28686523 C-6.12937555 20.58723693 -4.7466552 15.78450942 -3.3125 11 C-2.99216797 9.93910156 -2.67183594 8.87820312 -2.34179688 7.78515625 C-1.55882157 5.19082017 -0.77907949 2.59550866 0 0 Z " fill="#0B0B0B" transform="translate(116,157)"/>
<path d="M0 0 C3.3 0 6.6 0 10 0 C10.33 6.93 10.66 13.86 11 21 C12.32 19.35 13.64 17.7 15 16 C18.95398972 14.02300514 23.69039781 14.57390939 28 15 C32.45568613 16.98914559 34.56636807 19.13419018 36.40673828 23.65258789 C37.74525296 28.94880954 37.29839219 34.51515633 37.1875 39.9375 C37.17396484 41.19369141 37.16042969 42.44988281 37.14648438 43.74414062 C37.11128591 46.82987279 37.06204305 49.91471024 37 53 C34.03 53 31.06 53 28 53 C27.67 44.09 27.34 35.18 27 26 C21.56228571 23.77279053 21.56228571 23.77279053 16 24 C13.50491842 25.66338772 12.44032861 26.46169424 11 29 C10.23809294 33.09872905 10.20938569 37.15178657 10.1875 41.3125 C10.16236328 42.43462891 10.13722656 43.55675781 10.11132812 44.71289062 C10.0525468 47.47561286 10.0162002 50.23675392 10 53 C6.7 53 3.4 53 0 53 C0 35.51 0 18.02 0 0 Z " fill="#0D0D0D" transform="translate(225,156)"/>
<path d="M0 0 C3.95042208 2.98674884 6.10628668 5.07976087 8.35546875 9.578125 C8.35546875 12.548125 8.35546875 15.518125 8.35546875 18.578125 C-0.88453125 18.578125 -10.12453125 18.578125 -19.64453125 18.578125 C-17.48593057 26.01259431 -17.48593057 26.01259431 -14.64453125 28.578125 C-11.26801282 29.12832955 -8.01740785 29.16298407 -4.64453125 28.578125 C-3.61439848 26.92991256 -2.61338497 25.26308798 -1.64453125 23.578125 C1.39060748 23.11244487 4.30716488 23.29054916 7.35546875 23.578125 C7.77858295 26.53992441 7.95268621 28.69474084 6.23046875 31.2421875 C1.38630274 36.36388386 -3.17377567 37.65480783 -10.14453125 37.890625 C-14.7588842 37.765744 -17.8825513 37.46522589 -21.64453125 34.578125 C-27.78797127 26.79740025 -29.57754624 20.48648135 -28.64453125 10.578125 C-26.33116731 5.68447052 -22.98608572 2.67923534 -18.64453125 -0.421875 C-12.5207072 -1.9907886 -5.73859211 -3.08544687 0 0 Z " fill="#0A0A0A" transform="translate(375.64453125,172.421875)"/>
<path d="M0 0 C4.82597807 2.2273745 8.07824903 5.60429107 11 10 C11.1875 12.75 11.1875 12.75 11 15 C7.94975136 15.28775931 5.03819925 15.45410807 2 15 C0.0625 12.5625 0.0625 12.5625 -1 10 C-4.49202465 8.25398768 -8.18982279 8.44161196 -12 9 C-15.25 10.75 -15.25 10.75 -17 14 C-17.95003087 18.61443564 -17.671277 22.51969686 -15.0625 26.5 C-13.58606908 28.29981391 -13.58606908 28.29981391 -12 30 C-10.5444063 30.09858603 -9.08392081 30.12972143 -7.625 30.125 C-6.43777344 30.12886719 -6.43777344 30.12886719 -5.2265625 30.1328125 C-2.82656504 30.08617666 -2.82656504 30.08617666 0 29 C1.21869929 26.49552484 1.21869929 26.49552484 2 24 C4.97 24 7.94 24 11 24 C9.81536228 29.9231886 7.86005048 33.33446795 3 37 C-2.28608141 39.70450677 -8.18976395 39.54633563 -14 39 C-19.86737884 37.04420705 -22.86460392 33.36735535 -26.1171875 28.23828125 C-28.47950563 22.24886404 -27.99357632 14.31834474 -25.5 8.5 C-24.675 7.675 -23.85 6.85 -23 6 C-22.49855469 5.44570312 -21.99710938 4.89140625 -21.48046875 4.3203125 C-15.38192442 -1.4460671 -7.95345413 -1.31978715 0 0 Z " fill="#0C0C0C" transform="translate(209,171)"/>
<path d="M0 0 C3.3 0 6.6 0 10 0 C11.31998392 3.87249105 12.6296492 7.74839609 13.9375 11.625 C14.31068359 12.71941406 14.68386719 13.81382812 15.06835938 14.94140625 C15.42607422 16.00488281 15.78378906 17.06835938 16.15234375 18.1640625 C16.48226318 19.13811035 16.81218262 20.1121582 17.15209961 21.11572266 C18.01936166 24.06586199 18.55638441 26.9597545 19 30 C19.66 30 20.32 30 21 30 C21.12181641 28.63681641 21.12181641 28.63681641 21.24609375 27.24609375 C22.04903556 21.6255011 24.15038962 16.38272421 26.0625 11.0625 C26.43955078 9.99708984 26.81660156 8.93167969 27.20507812 7.83398438 C28.13092017 5.22053151 29.06269463 2.60935879 30 0 C32.97 0 35.94 0 39 0 C37.86580494 6.90827901 35.97759654 12.96993781 33.375 19.4609375 C31.00658701 25.55690956 29.02108832 31.78192828 27 38 C22.38 38 17.76 38 13 38 C9.40161539 28.89757738 5.85482564 19.78081068 2.5625 10.5625 C2.30388184 9.84779541 2.04526367 9.13309082 1.77880859 8.39672852 C0.743034 5.46298041 0 3.13597248 0 0 Z " fill="#0B0B0B" transform="translate(386,171)"/>
<path d="M0 0 C2.97 0 5.94 0 9 0 C9.33 2.31 9.66 4.62 10 7 C10.598125 6.21625 11.19625 5.4325 11.8125 4.625 C15.55124654 0.13850416 15.55124654 0.13850416 19.04296875 -0.1953125 C19.75066406 -0.17210937 20.45835937 -0.14890625 21.1875 -0.125 C23.0746875 -0.063125 23.0746875 -0.063125 25 0 C25 3.3 25 6.6 25 10 C23.87851563 10.14695313 23.87851563 10.14695313 22.734375 10.296875 C21.74953125 10.44640625 20.7646875 10.5959375 19.75 10.75 C18.77546875 10.88921875 17.8009375 11.0284375 16.796875 11.171875 C13.2219398 12.23037537 12.03671286 12.83178 10 16 C9.37050364 19.74481409 9.30292609 23.45856736 9.25 27.25 C9.22035156 28.28125 9.19070312 29.3125 9.16015625 30.375 C9.08955222 32.91674495 9.03680991 35.45757783 9 38 C6.03 38 3.06 38 0 38 C0 25.46 0 12.92 0 0 Z " fill="#080808" transform="translate(154,171)"/>
<path d="M0 0 C3.3 0 6.6 0 10 0 C10 12.87 10 25.74 10 39 C6.7 39 3.4 39 0 39 C0 26.13 0 13.26 0 0 Z " fill="#171717" transform="translate(269,170)"/>
<path d="M0 0 C0.77085937 0.05542969 1.54171875 0.11085937 2.3359375 0.16796875 C5.44508856 1.04341231 6.68753143 2.24221172 8.625 4.8125 C9.57120491 9.49784568 9.50699006 14.41029592 7.84765625 18.9296875 C6.75 20.5625 6.75 20.5625 3.625 22.8125 C0.19292652 23.45191496 -2.95744773 23.55972753 -6.375 22.8125 C-8.85441891 20.89456385 -9.35841832 19.86224503 -10.375 16.8125 C-10.54441458 14.83784811 -10.64096621 12.85635963 -10.6875 10.875 C-10.74357422 9.31458984 -10.74357422 9.31458984 -10.80078125 7.72265625 C-10.27483695 4.12789936 -9.16880349 3.04650613 -6.375 0.8125 C-3.9523097 -0.39884515 -2.67949901 -0.23590274 0 0 Z " fill="#F4F4F4" transform="translate(323.375,179.1875)"/>
<path d="M0 0 C0.66 0 1.32 0 2 0 C3.17615134 3.58029048 4.33925521 7.16468791 5.5 10.75 C5.83386719 11.76578125 6.16773438 12.7815625 6.51171875 13.828125 C6.82753906 14.8078125 7.14335937 15.7875 7.46875 16.796875 C7.90864258 18.14797363 7.90864258 18.14797363 8.35742188 19.52636719 C9 22 9 22 9 26 C3.72 26 -1.56 26 -7 26 C-5.46293719 17.05708912 -2.79888221 8.61030177 0 0 Z " fill="#E4E4E4" transform="translate(124,161)"/>
<path d="M0 0 C2.875 1.6875 2.875 1.6875 5 4 C5.33 5.65 5.66 7.3 6 9 C0.06 9 -5.88 9 -12 9 C-11 3 -11 3 -9.375 1.125 C-6.01275048 -0.46764451 -3.6795043 -0.45186895 0 0 Z " fill="#ECECEC" transform="translate(369,178)"/>
<path d="M0 0 C3.5625 0.1875 3.5625 0.1875 5.5625 2.1875 C5.8125 5.6875 5.8125 5.6875 5.5625 9.1875 C3.5625 11.1875 3.5625 11.1875 -0.0625 11.3125 C-1.17625 11.27125 -2.29 11.23 -3.4375 11.1875 C-5.06401522 7.93446956 -4.55203156 4.79524398 -4.4375 1.1875 C-3.4375 0.1875 -3.4375 0.1875 0 0 Z " fill="#FF493F" transform="translate(434.4375,197.8125)"/>
<path d="M0 0 C3 0.25 3 0.25 5 2.25 C5.25 5.75 5.25 5.75 5 9.25 C3 11.25 3 11.25 0 11.5 C-3 11.25 -3 11.25 -5 9.25 C-5.25 5.75 -5.25 5.75 -5 2.25 C-3 0.25 -3 0.25 0 0 Z " fill="#090909" transform="translate(290,197.75)"/>
<path d="M0 0 C6.57692308 0.57692308 6.57692308 0.57692308 8 2 C8.14115161 4.67058851 8.04247107 7.32432238 8 10 C1.9453125 10.9765625 1.9453125 10.9765625 0 11 C-2 9 -2 9 -2.25 5.5 C-2 2 -2 2 0 0 Z " fill="#1C1C1C" transform="translate(271,155)"/>
<path d="M0 0 C0.8353125 0.37125 0.8353125 0.37125 1.6875 0.75 C0.98625 1.141875 0.285 1.53375 -0.4375 1.9375 C-3.67324432 3.97742577 -6.41507782 6.25686929 -9.3125 8.75 C-7.925165 4.2096309 -5.3700603 -0.58054706 0 0 Z " fill="#333333" transform="translate(314.3125,171.25)"/>
</svg>
